<svg xmlns="http://www.w3.org/2000/svg" width="2000" height="2000" viewBox="0 0 2000 2000" version="1.1"><path d="M 593.814 218.519 C 593.526 218.807, 585.687 219.941, 576.395 221.038 C 411.707 240.482, 274.358 359.951, 231.538 521 C 227.049 537.881, 223.479 556.170, 220.800 576 L 218.571 592.500 218.540 999.500 L 218.508 1406.500 220.770 1423.500 C 226.721 1468.238, 237.214 1505.266, 254.863 1543.812 C 295.781 1633.183, 368.135 1705.152, 458.227 1746.095 C 468.845 1750.921, 472.203 1752.277, 489.500 1758.722 C 512.292 1767.214, 546.024 1775.142, 576.990 1779.284 L 593.500 1781.492 1000 1781.492 L 1406.500 1781.492 1423.010 1779.284 C 1454.159 1775.117, 1486.805 1767.430, 1510.590 1758.661 C 1530.254 1751.411, 1533.158 1750.199, 1550.653 1741.930 C 1634.663 1702.224, 1705.922 1629.594, 1745.248 1543.590 C 1762.651 1505.530, 1773.292 1467.852, 1779.271 1423.115 L 1781.492 1406.500 1781.492 1000 L 1781.492 593.500 1779.264 576.824 C 1773.211 531.515, 1762.822 494.811, 1745.089 456.081 C 1693.948 344.387, 1594.833 261.386, 1476 230.740 C 1458.471 226.220, 1444.456 223.559, 1423.500 220.771 L 1406.500 218.510 1000.419 218.253 C 777.075 218.111, 594.102 218.231, 593.814 218.519 M 598.500 283.096 C 550.952 286.290, 498.195 302.448, 455.161 326.998 C 414.165 350.384, 374.252 386.369, 346.460 425 C 309.651 476.164, 287.355 537.645, 283.059 599.830 C 281.584 621.181, 281.584 1378.819, 283.059 1400.170 C 288.784 1483.032, 325.259 1561.219, 385.630 1620.039 C 432.096 1665.310, 487.900 1695.761, 549.500 1709.457 C 566.791 1713.301, 584.222 1715.866, 600.500 1716.960 C 610.173 1717.611, 752.054 1717.969, 1000 1717.969 C 1247.946 1717.969, 1389.827 1717.611, 1399.500 1716.960 C 1468.143 1712.345, 1534.576 1686.251, 1589.500 1642.331 C 1604.557 1630.291, 1626.059 1609.089, 1638.832 1593.690 C 1684.769 1538.307, 1711.959 1470.897, 1716.958 1400 C 1718.367 1380.012, 1718.367 619.988, 1716.958 600 C 1711.905 528.345, 1683.993 459.715, 1637.447 404.500 C 1626.751 391.812, 1605.340 370.532, 1593 360.325 C 1538.442 315.198, 1469.777 287.773, 1399.500 283.041 C 1381.380 281.821, 616.698 281.873, 598.500 283.096 M 1424 468.709 C 1402.789 472.416, 1385.119 481.548, 1370.468 496.372 C 1351.649 515.414, 1342.112 539.794, 1343.285 565.864 C 1344.406 590.788, 1353.336 611.285, 1370.752 628.908 C 1417.298 676.010, 1496.327 661.473, 1523.817 600.753 C 1534.238 577.736, 1534.238 547.264, 1523.817 524.247 C 1514.225 503.060, 1496.627 485.523, 1475.283 475.882 C 1464.614 471.063, 1449.432 467.995, 1437 468.145 C 1431.225 468.215, 1425.375 468.469, 1424 468.709 M 973 593.656 C 942.448 596.545, 921.203 600.015, 899 605.740 C 794.551 632.677, 705.444 699.641, 649.821 793 C 620.910 841.525, 603.251 893.502, 595.801 952 C 592.579 977.301, 592.579 1022.699, 595.801 1048 C 606.297 1130.417, 638.122 1202.491, 691.621 1265 C 727.372 1306.772, 775.452 1343.772, 823.636 1366.590 C 841.650 1375.121, 843.515 1375.902, 864.500 1383.722 C 887.749 1392.384, 921.875 1400.343, 952.500 1404.246 C 977.027 1407.371, 1022.973 1407.371, 1047.500 1404.246 C 1072.624 1401.044, 1097.028 1395.844, 1120.590 1388.671 C 1132.086 1385.172, 1151.721 1377.904, 1161.153 1373.657 C 1236.828 1339.581, 1295.583 1290.142, 1339.926 1223.228 C 1374.602 1170.900, 1395.959 1112.575, 1404.233 1047.603 C 1406.050 1033.343, 1406.412 1025.431, 1406.412 1000 C 1406.412 966.945, 1404.867 949.544, 1399.517 922.336 C 1369.221 768.268, 1252.914 644.917, 1101 605.740 C 1068.009 597.232, 1041.749 593.905, 1004.500 593.514 C 989.650 593.358, 975.475 593.421, 973 593.656 M 990 719.673 C 917.918 723.019, 853.433 750.948, 803.382 800.500 C 795.604 808.200, 785.505 819.225, 780.940 825 C 723.471 897.699, 705.269 991.080, 731.236 1080 C 759.406 1176.466, 840.873 1252.108, 940 1273.837 C 986.589 1284.049, 1034.520 1282.200, 1080.707 1268.408 C 1170.277 1241.661, 1241.344 1170.696, 1268.383 1081 C 1283.900 1029.529, 1284.255 973.227, 1269.386 922 C 1255.756 875.043, 1229.403 831.622, 1193.872 797.582 C 1149.427 755, 1091.494 727.819, 1032 721.634 C 1015.916 719.962, 999.889 719.213, 990 719.673" stroke="none" fill="#fffcfc" fill-rule="evenodd"/><path d="" stroke="none" fill="#fcfcfc" fill-rule="evenodd"/></svg>